<svg version="1.1" id="Layer_1" xmlns="http://www.w3.org/2000/svg" xmlns:xlink="http://www.w3.org/1999/xlink" x="0px" y="0px"
	 width="100%" viewBox="0 0 176 176" enable-background="new 0 0 176 176" xml:space="preserve">
<path fill="#000000" opacity="1.000000" stroke="none" 
	d="
M74.468658,177.000000 
	C73.736008,173.873322 75.604401,172.920334 78.274261,172.904037 
	C85.545601,172.859619 92.817238,172.841965 100.088699,172.850647 
	C102.289734,172.853271 104.033966,173.521225 104.033310,176.587769 
	C94.312439,177.000000 84.624878,177.000000 74.468658,177.000000 
z"/>
<path fill="#000000" opacity="1.000000" stroke="none" 
	d="
M50.959084,119.989548 
	C31.288044,94.692490 40.232346,57.701153 69.514503,44.991642 
	C102.640739,30.613659 137.824066,55.959255 137.504364,88.882004 
	C137.385254,101.148659 133.815369,111.738670 126.294640,121.140556 
	C120.120445,128.859100 115.761292,137.244003 115.244446,147.340881 
	C115.049248,151.154266 112.552498,153.058823 108.952339,153.092178 
	C95.628868,153.215561 82.303444,153.240051 68.979691,153.154968 
	C64.952354,153.129242 62.939800,150.535065 62.766361,146.718613 
	C62.296932,136.389145 57.747280,127.903259 50.959084,119.989548 
M58.925133,115.588730 
	C62.314980,119.321533 64.700623,123.770309 67.534592,128.382065 
	C67.966057,126.193085 68.315178,124.571144 68.602806,122.938377 
	C70.477638,112.295410 76.576248,105.666138 87.201843,103.329620 
	C89.634117,102.794777 92.057495,102.207428 94.506508,101.762932 
	C104.300507,99.985306 111.654350,94.895050 116.284836,85.983139 
	C116.839165,84.916275 116.953987,83.307907 118.964363,83.223244 
	C119.091209,84.031311 119.242676,84.809151 119.332085,85.594055 
	C120.536591,96.168343 116.685059,105.103111 110.597801,113.444618 
	C104.890259,121.265785 101.398392,129.970856 101.351952,139.826263 
	C101.343147,141.694412 101.233490,143.630814 103.927094,143.784500 
	C106.232956,143.916061 107.289467,142.667114 107.564514,140.573486 
	C108.821533,131.005096 113.474876,123.054527 119.261902,115.591820 
	C125.446793,107.616013 129.054230,98.810623 128.771729,88.418037 
	C128.320984,71.835854 116.611900,56.225548 100.671288,51.685890 
	C83.420250,46.773056 64.536674,53.531170 55.624313,68.107925 
	C45.705059,84.331528 47.227238,100.008514 58.925133,115.588730 
z"/>
<path fill="#000000" opacity="1.000000" stroke="none" 
	d="
M108.283844,159.351654 
	C111.453339,160.320145 111.611412,162.438858 111.061569,164.682892 
	C110.524727,166.873901 108.774994,168.101196 106.664658,168.120087 
	C95.043350,168.224060 83.418106,168.310898 71.800163,168.090225 
	C68.606087,168.029541 66.662102,165.655121 66.839859,162.352509 
	C67.009743,159.196182 69.644218,158.963409 72.006470,158.970779 
	C83.957031,159.008133 95.907303,159.136765 108.283844,159.351654 
z"/>
<path fill="#000000" opacity="1.000000" stroke="none" 
	d="
M60.982170,37.313255 
	C61.268318,39.870823 60.109676,41.142509 58.121689,41.621208 
	C56.153034,42.095245 55.047592,40.701138 54.118977,39.304550 
	C51.735825,35.720421 49.382282,32.114967 47.100040,28.466040 
	C45.867661,26.495667 45.243568,24.306332 47.702515,22.855476 
	C50.065788,21.461069 51.794350,22.869036 53.078667,24.837877 
	C55.701454,28.858576 58.277565,32.909725 60.982170,37.313255 
z"/>
<path fill="#000000" opacity="1.000000" stroke="none" 
	d="
M34.351830,64.411499 
	C29.816420,62.300941 25.593479,60.345367 21.491495,58.162495 
	C19.683968,57.200619 18.130497,55.693886 19.300705,53.310940 
	C20.451412,50.967693 22.708401,51.167496 24.512981,51.929882 
	C28.484325,53.607666 32.303082,55.650547 36.162682,57.587139 
	C37.877354,58.447487 39.359062,59.633221 38.894814,61.815399 
	C38.433197,63.985199 36.749092,64.592651 34.351830,64.411499 
z"/>
<path fill="#000000" opacity="1.000000" stroke="none" 
	d="
M122.182060,41.513618 
	C117.308739,41.704212 115.884697,39.852173 117.934807,36.184414 
	C120.125328,32.265457 122.682495,28.551403 125.080650,24.748552 
	C126.342949,22.746864 128.240051,22.068800 130.224335,23.158895 
	C132.455383,24.384546 132.151550,26.535139 130.987900,28.374552 
	C128.233917,32.727909 125.335724,36.990032 122.182060,41.513618 
z"/>
<path fill="#000000" opacity="1.000000" stroke="none" 
	d="
M141.032974,58.050369 
	C145.122726,56.059364 148.877884,54.260445 152.632416,52.460159 
	C154.972992,51.337845 157.376175,51.025261 158.638931,53.734867 
	C159.853271,56.340519 157.767624,57.713604 155.762268,58.710064 
	C152.036148,60.561584 148.266022,62.327263 144.481903,64.058067 
	C142.729843,64.859436 140.887726,65.226822 139.533920,63.346832 
	C138.039688,61.271797 138.830200,59.607235 141.032974,58.050369 
z"/>
<path fill="#000000" opacity="1.000000" stroke="none" 
	d="
M92.334702,26.844574 
	C92.284477,28.643608 92.339256,29.982555 92.160156,31.289452 
	C91.933304,32.944729 90.926430,34.018887 89.199890,34.113308 
	C87.171188,34.224255 85.935219,32.942879 85.874863,31.148949 
	C85.696503,25.848240 85.718300,20.536991 85.818230,15.232814 
	C85.852547,13.411487 86.945145,12.021571 88.899490,11.942631 
	C91.166542,11.851058 92.199799,13.366725 92.265160,15.420095 
	C92.381248,19.067202 92.321831,22.719894 92.334702,26.844574 
z"/>
<path fill="#000000" opacity="1.000000" stroke="none" 
	d="
M99.754227,90.640701 
	C94.343407,95.577492 88.414940,96.736328 83.085922,94.158600 
	C77.867615,91.634422 75.290405,86.940651 75.687286,80.683731 
	C76.024002,75.375366 79.694954,70.780457 85.050377,68.963982 
	C89.874840,67.327591 96.191528,69.177200 99.489494,73.191933 
	C103.380829,77.928993 103.555061,83.983772 99.754227,90.640701 
z"/>
</svg>