<?xml version="1.0" encoding="UTF-8"?>
<svg version="1.1" xmlns="http://www.w3.org/2000/svg" width="500" height="500">
<path d="M0 0 C165 0 330 0 500 0 C500 165 500 330 500 500 C335 500 170 500 0 500 C0 335 0 170 0 0 Z " fill="#FEFEFE" transform="translate(0,0)"/>
<path d="M0 0 C9.66529703 7.64819156 17.54095288 17.90546197 20.125 30.25 C21.76039765 47.14013855 17.73482337 59.32210622 8.125 73.25 C7.01777553 74.87291805 5.91341437 76.49779486 4.8125 78.125 C4.34199219 78.80304688 3.87148438 79.48109375 3.38671875 80.1796875 C0.22083181 85.3744865 -0.48312092 90.56886584 -1.3125 96.5078125 C-1.875 99.25 -1.875 99.25 -3.875 102.25 C-5.92431641 102.63095093 -5.92431641 102.63095093 -8.4765625 102.63818359 C-9.43095215 102.64764008 -10.3853418 102.65709656 -11.36865234 102.6668396 C-12.40199707 102.66076691 -13.4353418 102.65469421 -14.5 102.6484375 C-15.55783691 102.65130768 -16.61567383 102.65417786 -17.70556641 102.65713501 C-19.94499241 102.65917904 -22.18443614 102.65362564 -24.42382812 102.64111328 C-27.86108134 102.62506499 -31.29715857 102.64095117 -34.734375 102.66015625 C-36.90625261 102.65817388 -39.07812948 102.65433033 -41.25 102.6484375 C-42.28334473 102.65451019 -43.31668945 102.66058289 -44.38134766 102.6668396 C-45.3357373 102.65738312 -46.29012695 102.64792664 -47.2734375 102.63818359 C-48.53679932 102.63460342 -48.53679932 102.63460342 -49.82568359 102.63095093 C-50.50195801 102.50523712 -51.17823242 102.37952332 -51.875 102.25 C-54.10484049 98.90523927 -54.26009039 97.12812266 -54.6875 93.1875 C-56.25112614 82.47903005 -61.19707232 75.70898993 -67.71875 67.28515625 C-75.86566446 55.81748862 -77.15595807 43.92669076 -75.875 30.25 C-72.73538963 16.59339883 -64.1170185 5.43758649 -52.58203125 -2.28515625 C-36.86113433 -11.56616769 -14.86011976 -10.22891713 0 0 Z " fill="#FAFAF9" transform="translate(277.875,161.75)"/>
<path d="M0 0 C9.66529703 7.64819156 17.54095288 17.90546197 20.125 30.25 C21.76039765 47.14013855 17.73482337 59.32210622 8.125 73.25 C7.01777553 74.87291805 5.91341437 76.49779486 4.8125 78.125 C4.34199219 78.80304688 3.87148438 79.48109375 3.38671875 80.1796875 C0.22083181 85.3744865 -0.48312092 90.56886584 -1.3125 96.5078125 C-1.875 99.25 -1.875 99.25 -3.875 102.25 C-5.92431641 102.63095093 -5.92431641 102.63095093 -8.4765625 102.63818359 C-9.43095215 102.64764008 -10.3853418 102.65709656 -11.36865234 102.6668396 C-12.40199707 102.66076691 -13.4353418 102.65469421 -14.5 102.6484375 C-15.55783691 102.65130768 -16.61567383 102.65417786 -17.70556641 102.65713501 C-19.94499241 102.65917904 -22.18443614 102.65362564 -24.42382812 102.64111328 C-27.86108134 102.62506499 -31.29715857 102.64095117 -34.734375 102.66015625 C-36.90625261 102.65817388 -39.07812948 102.65433033 -41.25 102.6484375 C-42.28334473 102.65451019 -43.31668945 102.66058289 -44.38134766 102.6668396 C-45.3357373 102.65738312 -46.29012695 102.64792664 -47.2734375 102.63818359 C-48.53679932 102.63460342 -48.53679932 102.63460342 -49.82568359 102.63095093 C-50.50195801 102.50523712 -51.17823242 102.37952332 -51.875 102.25 C-54.10484049 98.90523927 -54.26009039 97.12812266 -54.6875 93.1875 C-56.25112614 82.47903005 -61.19707232 75.70898993 -67.71875 67.28515625 C-75.86566446 55.81748862 -77.15595807 43.92669076 -75.875 30.25 C-72.73538963 16.59339883 -64.1170185 5.43758649 -52.58203125 -2.28515625 C-36.86113433 -11.56616769 -14.86011976 -10.22891713 0 0 Z M-60.3046875 15.02734375 C-67.68002732 25.46656852 -68.91236532 35.79030974 -67.875 48.25 C-66.27191912 55.50508606 -62.07096864 61.2486737 -57.875 67.25 C-56.61361552 69.15919363 -55.36382281 71.07609014 -54.125 73 C-53.55265625 73.88171875 -52.9803125 74.7634375 -52.390625 75.671875 C-50.93748034 78.143719 -49.86112758 80.56231894 -48.875 83.25 C-48.545 83.25 -48.215 83.25 -47.875 83.25 C-47.80023438 82.1878125 -47.72546875 81.125625 -47.6484375 80.03125 C-46.32670205 64.71360354 -46.32670205 64.71360354 -39.875 59.25 C-35.15864887 55.67839429 -29.66238309 54.68109856 -24 53.375 C-14.16853488 51.07932794 -6.84227041 47.56843088 -0.93359375 39.08203125 C0.27716885 37.12820882 0.27716885 37.12820882 1.125 34.25 C1.91826004 47.0743706 -1.74936107 54.79748378 -8.64819336 65.20068359 C-15.06319291 74.95255543 -16.05849228 83.79192636 -15.875 95.25 C-13.565 95.25 -11.255 95.25 -8.875 95.25 C-8.81183594 94.61835938 -8.74867188 93.98671875 -8.68359375 93.3359375 C-7.17842109 82.34025513 -2.20958735 72.77691406 4.70703125 64.19140625 C12.14384254 54.00932577 13.09479945 43.45376119 12.125 31.25 C10.01533405 20.46020247 3.30095822 12.17994519 -5.40625 5.75390625 C-24.04444068 -5.60005485 -46.42728565 -1.72235756 -60.3046875 15.02734375 Z " fill="#141511" transform="translate(277.875,161.75)"/>
<path d="M0 0 C9.66529703 7.64819156 17.54095288 17.90546197 20.125 30.25 C21.76039765 47.14013855 17.73482337 59.32210622 8.125 73.25 C7.01777553 74.87291805 5.91341437 76.49779486 4.8125 78.125 C4.34199219 78.80304688 3.87148438 79.48109375 3.38671875 80.1796875 C0.77314393 84.46821585 -0.24061189 88.62647728 -1 93.5625 C-1.16757812 94.63113281 -1.33515625 95.69976562 -1.5078125 96.80078125 C-1.68957031 98.01314453 -1.68957031 98.01314453 -1.875 99.25 C-3.36 99.745 -3.36 99.745 -4.875 100.25 C-5.205 99.26 -5.535 98.27 -5.875 97.25 C-6.865 97.745 -6.865 97.745 -7.875 98.25 C-10.32633097 90.8960071 -8.607835 85.33621982 -5.56640625 78.46484375 C-3.42589093 74.39638161 -0.87782533 70.70390321 1.80834961 66.98803711 C10.10277752 55.45820644 12.23560782 45.22566545 11.125 31.25 C9.1183812 20.98723277 2.87311793 12.49758276 -5.62890625 6.53125 C-15.04256659 1.16137071 -26.2033346 -1.49810084 -36.875 0.93359375 C-49.46044196 4.80233292 -57.33274992 11.31995198 -64.26171875 22.484375 C-68.43511612 30.97760473 -68.36273117 42.35713311 -66.07421875 51.421875 C-65.13953741 53.80368846 -64.10195502 56.007179 -62.875 58.25 C-62.29064124 59.45783776 -61.70716461 60.66610315 -61.125 61.875 C-60.7125 62.65875 -60.3 63.4425 -59.875 64.25 C-60.803125 64.20875 -61.73125 64.1675 -62.6875 64.125 C-66.03309719 63.97863661 -66.03309719 63.97863661 -68.875 66.25 C-69.85850025 64.16870896 -70.83664458 62.08488641 -71.8125 60 C-72.35777344 58.83984375 -72.90304688 57.6796875 -73.46484375 56.484375 C-77.78924325 46.56580772 -77.47326133 33.24559179 -73.8125 23.1875 C-68.09626335 10.57014853 -58.9155175 -0.34959308 -45.875 -5.75 C-30.53942419 -10.34420204 -13.34775773 -9.18788743 0 0 Z " fill="#1B1B19" transform="translate(277.875,161.75)"/>
<path d="M0 0 C1.98 0 3.96 0 6 0 C8.60900601 6.64558134 9.6143354 12.88515313 10 20 C10.66 20 11.32 20 12 20 C12.1546875 18.39125 12.1546875 18.39125 12.3125 16.75 C13.0099734 11.04712923 14.53076782 5.54427239 16 0 C18.31 0 20.62 0 23 0 C23.67449966 2.39387157 24.33976641 4.78969221 25 7.1875 C25.19078125 7.86103516 25.3815625 8.53457031 25.578125 9.22851562 C26.5825836 12.90555156 27.23704741 16.1850182 27 20 C27.66 20 28.32 20 29 20 C29.03738281 19.39414062 29.07476562 18.78828125 29.11328125 18.1640625 C29.6140761 11.78138306 30.95064686 6.05783632 33 0 C34.98 0 36.96 0 39 0 C38.41664564 7.14055269 36.89994809 13.68254858 34.9375 20.5625 C34.65583984 21.57119141 34.37417969 22.57988281 34.08398438 23.61914062 C33.39552851 26.08124548 32.70077279 28.54137816 32 31 C29.69 31 27.38 31 25 31 C24.81824219 30.443125 24.63648438 29.88625 24.44921875 29.3125 C22.75137815 24.15803009 20.93577765 19.06989385 19 14 C18.72285156 15.14339844 18.44570313 16.28679687 18.16015625 17.46484375 C17.79445622 18.95577465 17.42856071 20.44665761 17.0625 21.9375 C16.88009766 22.69224609 16.69769531 23.44699219 16.50976562 24.22460938 C15.11328125 29.88671875 15.11328125 29.88671875 14 31 C11.66702567 31.04092937 9.33294775 31.04241723 7 31 C5.65518197 26.00301117 4.32229772 21.00299492 3 16 C2.69191406 14.83597656 2.38382812 13.67195313 2.06640625 12.47265625 C1.79699219 11.42980469 1.52757812 10.38695312 1.25 9.3125 C1.00765625 8.38050781 0.7653125 7.44851563 0.515625 6.48828125 C0 4 0 4 0 0 Z " fill="#1A1A17" transform="translate(263,312)"/>
<path d="M0 0 C2.64 0 5.28 0 8 0 C10.31 4.95 12.62 9.9 15 15 C15.969375 13.081875 16.93875 11.16375 17.9375 9.1875 C18.48277344 8.10855469 19.02804688 7.02960938 19.58984375 5.91796875 C21.0585207 3.03788473 21.0585207 3.03788473 22 0 C24.64 0 27.28 0 30 0 C30 10.23 30 20.46 30 31 C28.02 31 26.04 31 24 31 C23.67 25.72 23.34 20.44 23 15 C20.03 20.445 20.03 20.445 17 26 C15.35 25.67 13.7 25.34 12 25 C10.63671875 22.93359375 10.63671875 22.93359375 9.6875 20.4375 C9.36136719 19.61121094 9.03523437 18.78492188 8.69921875 17.93359375 C8.46847656 17.29550781 8.23773438 16.65742188 8 16 C7.93941406 16.99902344 7.87882813 17.99804688 7.81640625 19.02734375 C7.73261719 20.31769531 7.64882812 21.60804688 7.5625 22.9375 C7.48128906 24.22527344 7.40007812 25.51304687 7.31640625 26.83984375 C7 30 7 30 6 31 C4.02 31 2.04 31 0 31 C0 20.77 0 10.54 0 0 Z " fill="#151512" transform="translate(181,312)"/>
<path d="M0 0 C7 0 7 0 8.62084961 1.37695312 C8.96124268 2.00537109 9.30163574 2.63378906 9.65234375 3.28125 C10.03583984 3.95800781 10.41933594 4.63476562 10.81445312 5.33203125 C11.37036133 6.40517578 11.37036133 6.40517578 11.9375 7.5 C12.33517578 8.21542969 12.73285156 8.93085938 13.14257812 9.66796875 C14.11886575 11.43234397 15.06267567 13.21462033 16 15 C16.33 10.05 16.66 5.1 17 0 C19.31 0 21.62 0 24 0 C24 10.23 24 20.46 24 31 C18 31 18 31 16.2421875 29.27734375 C15.56542969 28.11912109 15.56542969 28.11912109 14.875 26.9375 C14.14023438 25.71546875 14.14023438 25.71546875 13.390625 24.46875 C12.93171875 23.6540625 12.4728125 22.839375 12 22 C11.58234375 21.2884375 11.1646875 20.576875 10.734375 19.84375 C9.80178854 18.24127749 8.89749153 16.62238854 8 15 C7.67 20.28 7.34 25.56 7 31 C4.69 31 2.38 31 0 31 C0 20.77 0 10.54 0 0 Z " fill="#21211E" transform="translate(233,312)"/>
<path d="M0 0 C4.36045847 2.22136563 7.13277421 4.43567029 9 9 C9.53635899 13.82723092 9.52017901 15.97890786 7.3125 20.3125 C3.73770791 24.4669881 1.56223989 25.82641779 -3.9375 26.4375 C-8.22902681 26.25126393 -10.7525341 24.86985359 -14 22 C-16.910372 17.634442 -17.6506249 14.20499921 -17 9 C-13.23712424 1.75298003 -8.2603235 -1.45770415 0 0 Z " fill="#151612" transform="translate(254,181)"/>
<path d="M0 0 C6.27 0 12.54 0 19 0 C19 1.98 19 3.96 19 6 C15.04 6 11.08 6 7 6 C7 7.98 7 9.96 7 12 C10.63 12 14.26 12 18 12 C18 13.98 18 15.96 18 18 C14.37 18 10.74 18 7 18 C7 20.31 7 22.62 7 25 C10.96 25 14.92 25 19 25 C19 26.98 19 28.96 19 31 C12.73 31 6.46 31 0 31 C0 20.77 0 10.54 0 0 Z " fill="#161714" transform="translate(308,312)"/>
<path d="M0 0 C1.98 0 3.96 0 6 0 C6.02505615 0.69150146 6.0501123 1.38300293 6.07592773 2.09545898 C6.19152161 5.20967866 6.31441242 8.32356789 6.4375 11.4375 C6.47681641 12.52611328 6.51613281 13.61472656 6.55664062 14.73632812 C6.61948242 16.28803711 6.61948242 16.28803711 6.68359375 17.87109375 C6.72025146 18.82943115 6.75690918 19.78776855 6.79467773 20.77514648 C6.75834424 22.97138925 6.75834424 22.97138925 8 24 C9.99958364 24.04080783 12.00045254 24.04254356 14 24 C15.23060421 21.53879159 15.2057723 19.74223134 15.31640625 16.9921875 C15.35830078 16.00605469 15.40019531 15.01992188 15.44335938 14.00390625 C15.48267578 12.97136719 15.52199219 11.93882812 15.5625 10.875 C15.60568359 9.83472656 15.64886719 8.79445313 15.69335938 7.72265625 C15.7996288 5.14857472 15.90166583 2.57439492 16 0 C17.98 0 19.96 0 22 0 C22.08729047 4.06236402 22.14048992 8.12448589 22.1875 12.1875 C22.21263672 13.33798828 22.23777344 14.48847656 22.26367188 15.67382812 C22.27333984 16.78564453 22.28300781 17.89746094 22.29296875 19.04296875 C22.3086792 20.06414795 22.32438965 21.08532715 22.34057617 22.13745117 C21.94575908 25.45589588 20.93635895 27.30410939 19 30 C15.96754689 32.35857464 12.73934186 32.35933916 8.96484375 32.25390625 C6.04372208 31.87642532 4.25685476 30.85858628 2 29 C-0.12687064 25.69153456 -0.2349689 23.0269521 -0.1953125 19.140625 C-0.18886719 18.02558594 -0.18242187 16.91054688 -0.17578125 15.76171875 C-0.15902344 14.60285156 -0.14226562 13.44398438 -0.125 12.25 C-0.11597656 11.07566406 -0.10695312 9.90132813 -0.09765625 8.69140625 C-0.07410063 5.79406464 -0.04120652 2.89713559 0 0 Z " fill="#141411" transform="translate(151,312)"/>
<path d="M0 0 C13.86 0 27.72 0 42 0 C42.495 2.475 42.495 2.475 43 5 C41.79882812 6.78823853 41.79882812 6.78823853 40 8 C37.09376282 8.29835467 34.40630697 8.42032628 31.5 8.3984375 C30.66791016 8.40130768 29.83582031 8.40417786 28.97851562 8.40713501 C27.22004516 8.40917562 25.46155199 8.40364593 23.703125 8.39111328 C21.00990087 8.37505902 18.3181774 8.39096145 15.625 8.41015625 C13.91666335 8.40817382 12.20832764 8.40433014 10.5 8.3984375 C9.69369141 8.40451019 8.88738281 8.41058289 8.05664062 8.4168396 C2.51518839 8.34705119 2.51518839 8.34705119 0.20117188 6.78823853 C-0.19521484 6.19811981 -0.59160156 5.6080011 -1 5 C-0.67 3.35 -0.34 1.7 0 0 Z " fill="#1E1F1B" transform="translate(229,272)"/>
<path d="M0 0 C2.31 0 4.62 0 7 0 C7 8.25 7 16.5 7 25 C10.63 25 14.26 25 18 25 C18 26.98 18 28.96 18 31 C12.06 31 6.12 31 0 31 C0 20.77 0 10.54 0 0 Z " fill="#222220" transform="translate(334,312)"/>
<path d="M0 0 C1.98 0 3.96 0 6 0 C6 8.25 6 16.5 6 25 C9.96 25 13.92 25 18 25 C18 26.98 18 28.96 18 31 C12.06 31 6.12 31 0 31 C0 20.77 0 10.54 0 0 Z " fill="#131310" transform="translate(358,312)"/>
<path d="M0 0 C1.98 0 3.96 0 6 0 C6 8.25 6 16.5 6 25 C9.96 25 13.92 25 18 25 C18 26.98 18 28.96 18 31 C12.06 31 6.12 31 0 31 C0 20.77 0 10.54 0 0 Z " fill="#131411" transform="translate(128,312)"/>
<path d="M0 0 C2.31 0 4.62 0 7 0 C7 10.23 7 20.46 7 31 C4.69 31 2.38 31 0 31 C0 20.77 0 10.54 0 0 Z " fill="#171815" transform="translate(219,312)"/>
<path d="M0 0 C2.64 0 5.28 0 8 0 C8 10.23 8 20.46 8 31 C6.02 31 4.04 31 2 31 C2.01047363 30.44014404 2.02094727 29.88028809 2.03173828 29.3034668 C2.07333326 26.76485693 2.09933685 24.2263188 2.125 21.6875 C2.14175781 20.80642578 2.15851563 19.92535156 2.17578125 19.01757812 C2.18544922 17.74624023 2.18544922 17.74624023 2.1953125 16.44921875 C2.20578613 15.66893311 2.21625977 14.88864746 2.22705078 14.0847168 C2.12880859 11.6934152 2.12880859 11.6934152 0 9 C-1.25 7.125 -1.25 7.125 -2 5 C-1.125 2.25 -1.125 2.25 0 0 Z " fill="#141512" transform="translate(203,312)"/>
<path d="M0 0 C2.6465335 2.6465335 3.59941997 5.56221264 5 9 C6.32 6.36 7.64 3.72 9 1 C11.4375 1.75 11.4375 1.75 14 3 C14.8125 5.125 14.8125 5.125 15 7 C14.34 7 13.68 7 13 7 C12.7525 7.845625 12.505 8.69125 12.25 9.5625 C10.86026373 13.38427474 9.08879162 16.51868063 7 20 C4.75 20.0625 4.75 20.0625 2 19 C0.28027685 16.08800873 -0.7900423 13.18174061 -2 10 C-2.33 14.62 -2.66 19.24 -3 24 C-3.33 24 -3.66 24 -4 24 C-4 18.06 -4 12.12 -4 6 C-3.34 6 -2.68 6 -2 6 C-1.34 4.02 -0.68 2.04 0 0 Z " fill="#20201D" transform="translate(191,318)"/>
<path d="M0 0 C9.57 0 19.14 0 29 0 C26.78535757 4.42928486 25.16814054 5.53314131 21 8 C15.42201171 9.85932943 10.8468809 9.68362652 5.625 7.125 C3.32493535 5.88791344 1.86781078 4.86781078 0 3 C0 2.01 0 1.02 0 0 Z " fill="#191A18" transform="translate(236,286)"/>
<path d="M0 0 C1.98 0 3.96 0 6 0 C6.02505615 0.77714355 6.0501123 1.55428711 6.07592773 2.35498047 C6.19166796 5.86183069 6.31449352 9.36839745 6.4375 12.875 C6.47681641 14.09832031 6.51613281 15.32164062 6.55664062 16.58203125 C6.61948242 18.33193359 6.61948242 18.33193359 6.68359375 20.1171875 C6.72025146 21.19597168 6.75690918 22.27475586 6.79467773 23.38623047 C6.83376643 25.98069536 6.83376643 25.98069536 8 28 C5.125 28.1875 5.125 28.1875 2 28 C-0.29755922 24.55366118 -0.23643976 23.28931609 -0.1953125 19.23828125 C-0.18886719 18.12001953 -0.18242187 17.00175781 -0.17578125 15.84960938 C-0.15902344 14.68236328 -0.14226562 13.51511719 -0.125 12.3125 C-0.11597656 11.13365234 -0.10695312 9.95480469 -0.09765625 8.74023438 C-0.07406423 5.82661974 -0.0411454 2.91341108 0 0 Z " fill="#141411" transform="translate(151,312)"/>
<path d="M0 0 C0.33 0 0.66 0 1 0 C1.48661855 8.62396205 0.92480024 15.23800667 -3 23 C-3.66 23 -4.32 23 -5 23 C-5 22.34 -5 21.68 -5 21 C-8.3 20.34 -11.6 19.68 -15 19 C-15 18.01 -15 17.02 -15 16 C-13.2421875 14.74609375 -13.2421875 14.74609375 -10.875 13.4375 C-6.00847293 10.40551547 -3.75167154 6.98231473 -1.09375 1.9765625 C-0.55234375 0.99816406 -0.55234375 0.99816406 0 0 Z " fill="#1B1B18" transform="translate(279,195)"/>
<path d="M0 0 C-0.99 0 -1.98 0 -3 0 C-3.66 1.65 -4.32 3.3 -5 5 C-4.46375 4.835 -3.9275 4.67 -3.375 4.5 C-0.54113991 3.90339788 2.1119806 3.9343632 5 4 C5 4.66 5 5.32 5 6 C4.45472656 6.14695313 3.90945312 6.29390625 3.34765625 6.4453125 C-2.15834383 8.08299458 -6.47050031 10.37591028 -11.15234375 13.6953125 C-13 15 -13 15 -15 16 C-15.66 14.02 -16.32 12.04 -17 10 C-18.65 11.65 -20.3 13.3 -22 15 C-22.66 14.67 -23.32 14.34 -24 14 C-8.3683792 -2.98870686 -8.3683792 -2.98870686 0 0 Z " fill="#1B1B18" transform="translate(236,157)"/>
<path d="M0 0 C0.33 0 0.66 0 1 0 C1.01981934 0.73637695 1.03963867 1.47275391 1.06005859 2.23144531 C1.15537828 5.57132056 1.26502996 8.91057639 1.375 12.25 C1.4059375 13.40886719 1.436875 14.56773437 1.46875 15.76171875 C1.50742187 16.87675781 1.54609375 17.99179687 1.5859375 19.140625 C1.6173584 20.16704102 1.6487793 21.19345703 1.68115234 22.25097656 C1.99636625 24.96867073 2.61032351 26.66924435 4 29 C4.66 28.01 5.32 27.02 6 26 C5.34 25.67 4.68 25.34 4 25 C4.99 21.535 4.99 21.535 6 18 C6.33 18 6.66 18 7 18 C7 20.31 7 22.62 7 25 C10.96 25 14.92 25 19 25 C19 26.98 19 28.96 19 31 C12.73 31 6.46 31 0 31 C0 20.77 0 10.54 0 0 Z " fill="#323230" transform="translate(308,312)"/>
<path d="M0 0 C0.99 0 1.98 0 3 0 C4.1353654 2.27073079 4.12892412 3.54283279 4.1328125 6.0625 C4.13410156 6.85914063 4.13539063 7.65578125 4.13671875 8.4765625 C4.13091797 9.72566406 4.13091797 9.72566406 4.125 11 C4.12886719 11.83273438 4.13273438 12.66546875 4.13671875 13.5234375 C4.13542969 14.32007813 4.13414062 15.11671875 4.1328125 15.9375 C4.13168457 16.66839844 4.13055664 17.39929688 4.12939453 18.15234375 C4 20 4 20 3 22 C-0.875 21.125 -0.875 21.125 -2 20 C-2.12667764 17.00981839 -2.18520838 14.05305892 -2.1875 11.0625 C-2.19974609 10.22525391 -2.21199219 9.38800781 -2.22460938 8.52539062 C-2.22654297 7.72423828 -2.22847656 6.92308594 -2.23046875 6.09765625 C-2.23457764 5.36039307 -2.23868652 4.62312988 -2.24291992 3.86352539 C-2 2 -2 2 0 0 Z " fill="#171715" transform="translate(249,124)"/>
<path d="M0 0 C6.77493242 0.14728114 12.49285743 3.16977281 18 7 C18.33 7.99 18.66 8.98 19 10 C18.67 10.66 18.34 11.32 18 12 C11.25167036 11.70007424 5.42151393 9.00516686 0 5 C-0.8828125 2.86328125 -0.8828125 2.86328125 -1 1 C-0.67 0.67 -0.34 0.34 0 0 Z " fill="#282925" transform="translate(181,164)"/>
<path d="M0 0 C2.1953125 -0.421875 2.1953125 -0.421875 5 0 C6.92234875 2.25378819 8.36461394 4.24593891 9.875 6.75 C10.29007813 7.38421875 10.70515625 8.0184375 11.1328125 8.671875 C14.10253283 13.42342753 14.10253283 13.42342753 13.60595703 16.21582031 C13.40599121 16.80459961 13.20602539 17.39337891 13 18 C10.76953125 17.859375 10.76953125 17.859375 8 17 C5.76171875 14.453125 5.76171875 14.453125 3.6875 11.25 C2.99011719 10.20328125 2.29273438 9.1565625 1.57421875 8.078125 C-0.00206503 4.99596218 -0.37030159 3.38920099 0 0 Z " fill="#20201D" transform="translate(208,135)"/>
<path d="M0 0 C-0.140625 2.29296875 -0.140625 2.29296875 -1 5 C-3.546875 6.80078125 -3.546875 6.80078125 -6.75 8.3125 C-7.79671875 8.82425781 -8.8434375 9.33601562 -9.921875 9.86328125 C-12.89077209 10.9596633 -14.8763061 11.24873859 -18 11 C-18.33 9.68 -18.66 8.36 -19 7 C-5 -2.2 -5 -2.2 0 0 Z " fill="#1F201C" transform="translate(319,165)"/>
<path d="M0 0 C2.0625 0.4375 2.0625 0.4375 4 1 C3.51539656 6.12295063 1.87051506 9.18497849 -1.0625 13.375 C-1.79597656 14.43460938 -2.52945312 15.49421875 -3.28515625 16.5859375 C-4.13400391 17.78089844 -4.13400391 17.78089844 -5 19 C-6.32 18.67 -7.64 18.34 -9 18 C-9.56881109 13.12447639 -7.81710966 10.68100711 -5.0625 6.75 C-4.33160156 5.69296875 -3.60070312 4.6359375 -2.84765625 3.546875 C-1 1 -1 1 0 0 Z " fill="#1F1F1E" transform="translate(288,135)"/>
<path d="M0 0 C1.98 0 3.96 0 6 0 C7.92471317 5.33835539 9.39891424 10.34979382 10 16 C8.02 16.33 6.04 16.66 4 17 C1.90429574 11.30601106 0.54981916 6.04801071 0 0 Z " fill="#1D1E1B" transform="translate(263,312)"/>
<path d="M0 0 C0.5745952 3.73486879 1 7.21293268 1 11 C-1.29296875 11.2734375 -1.29296875 11.2734375 -4 11 C-5.80078125 9.1015625 -5.80078125 9.1015625 -7.3125 6.625 C-8.08013672 5.40683594 -8.08013672 5.40683594 -8.86328125 4.1640625 C-10 2 -10 2 -10 0 C-6.30458414 -0.95024979 -3.69541586 -0.95024979 0 0 Z " fill="#141410" transform="translate(255,332)"/>
<path d="M0 0 C1.08667969 0.02707031 2.17335937 0.05414063 3.29296875 0.08203125 C4.54013672 0.13423828 4.54013672 0.13423828 5.8125 0.1875 C5.8125 2.1675 5.8125 4.1475 5.8125 6.1875 C0.8625 6.1875 -4.0875 6.1875 -9.1875 6.1875 C-9.1875 3.1875 -9.1875 3.1875 -8.07421875 1.51171875 C-5.35785905 -0.39479458 -3.2767271 -0.10570087 0 0 Z " fill="#1B1B19" transform="translate(140.1875,336.8125)"/>
<path d="M0 0 C0.33 0.66 0.66 1.32 1 2 C1.99 2 2.98 2 4 2 C4.33 2.66 4.66 3.32 5 4 C5.9075 3.34 6.815 2.68 7.75 2 C11 0 11 0 15 0 C15 1.98 15 3.96 15 6 C9.39 6 3.78 6 -2 6 C-1 1 -1 1 0 0 Z " fill="#151513" transform="translate(337,337)"/>
<path d="M0 0 C3.63 0 7.26 0 11 0 C10.67 1.65 10.34 3.3 10 5 C10.66 5.66 11.32 6.32 12 7 C8.04 7 4.08 7 0 7 C0 4.69 0 2.38 0 0 Z " fill="#F0F0EF" transform="translate(315,330)"/>
<path d="M0 0 C1.65 0 3.3 0 5 0 C5.08076963 2.45898655 5.14037143 4.91533742 5.1875 7.375 C5.22520508 8.42300781 5.22520508 8.42300781 5.26367188 9.4921875 C5.29296875 11.5234375 5.29296875 11.5234375 5 15 C4.01 15.66 3.02 16.32 2 17 C1.66151348 15.10507994 1.32943089 13.20901534 1 11.3125 C0.814375 10.25675781 0.62875 9.20101563 0.4375 8.11328125 C0.04931926 5.35095938 -0.08259976 2.78257957 0 0 Z " fill="#141411" transform="translate(251,312)"/>
<path d="M0 0 C-0.99 0 -1.98 0 -3 0 C-3.66 1.65 -4.32 3.3 -5 5 C-4.46375 4.835 -3.9275 4.67 -3.375 4.5 C-0.54113991 3.90339788 2.1119806 3.9343632 5 4 C5 4.66 5 5.32 5 6 C4.06027344 6.30744141 4.06027344 6.30744141 3.1015625 6.62109375 C2.28429687 6.89050781 1.46703125 7.15992188 0.625 7.4375 C-0.18710938 7.70433594 -0.99921875 7.97117188 -1.8359375 8.24609375 C-4.01031799 8.95179729 -4.01031799 8.95179729 -6 10 C-6 9.34 -6 8.68 -6 8 C-6.66 8 -7.32 8 -8 8 C-8.33 7.01 -8.66 6.02 -9 5 C-10.65 5.33 -12.3 5.66 -14 6 C-10.31063898 1.88494347 -5.74338985 -2.42989571 0 0 Z " fill="#2B2B29" transform="translate(236,157)"/>
<path d="M0 0 C-0.4979837 3.73487777 -0.87491756 5.81237635 -3 9 C-4.65 8.67 -6.3 8.34 -8 8 C-8 5.69 -8 3.38 -8 1 C-2.25 -1.125 -2.25 -1.125 0 0 Z " fill="#151612" transform="translate(201,329)"/>
<path d="M0 0 C3.00617269 3.00617269 2.59585316 5.82381598 3 10 C1.0625 10.5625 1.0625 10.5625 -1 11 C-1.33 10.67 -1.66 10.34 -2 10 C-2.33 14.62 -2.66 19.24 -3 24 C-3.33 24 -3.66 24 -4 24 C-4 18.06 -4 12.12 -4 6 C-3.34 6 -2.68 6 -2 6 C-1.34 4.02 -0.68 2.04 0 0 Z " fill="#40413E" transform="translate(191,318)"/>
<path d="M0 0 C2.31 0.66 4.62 1.32 7 2 C6.67 4.31 6.34 6.62 6 9 C4.68 9 3.36 9 2 9 C-0.25 6.5 -0.25 6.5 -2 4 C-1.34 2.68 -0.68 1.36 0 0 Z " fill="#151613" transform="translate(212,225)"/>
<path d="M0 0 C3.63 0 7.26 0 11 0 C11 1.98 11 3.96 11 6 C4.52369077 6.36658354 4.52369077 6.36658354 2.125 4.6875 C1 3 1 3 0 0 Z " fill="#131311" transform="translate(316,337)"/>
<path d="M0 0 C0.33 0 0.66 0 1 0 C1 1.65 1 3.3 1 5 C1.99 5.33 2.98 5.66 4 6 C2.68 6.33 1.36 6.66 0 7 C0 7.66 0 8.32 0 9 C-2.06942576 11.5867822 -3.75728494 12.4409112 -7 13 C-7 12.01 -7 11.02 -7 10 C-6.01 9.67 -5.02 9.34 -4 9 C-4.66 7.68 -5.32 6.36 -6 5 C-4.6875 3.5 -4.6875 3.5 -3 2 C-2.01 2 -1.02 2 0 2 C0 1.34 0 0.68 0 0 Z " fill="#141410" transform="translate(286,223)"/>
<path d="M0 0 C5.13217903 2.25315177 8.9096916 5.26063522 13 9 C11.02 9.99 11.02 9.99 9 11 C9 10.34 9 9.68 9 9 C8.34 9 7.68 9 7 9 C6.67 9.99 6.34 10.98 6 12 C5.34 11.34 4.68 10.68 4 10 C4.66 10 5.32 10 6 10 C5.690625 9.401875 5.38125 8.80375 5.0625 8.1875 C4 6 4 6 3 3 C2.01 2.67 1.02 2.34 0 2 C0 1.34 0 0.68 0 0 Z " fill="#1F1F1C" transform="translate(272,159)"/>
<path d="M0 0 C0 0.99 0 1.98 0 3 C-0.639375 3.28875 -1.27875 3.5775 -1.9375 3.875 C-4.15206079 4.82823451 -4.15206079 4.82823451 -5 7 C-4.01 7.33 -3.02 7.66 -2 8 C-4.31 8.33 -6.62 8.66 -9 9 C-9.33 7.68 -9.66 6.36 -10 5 C-8.71186658 4.16121545 -7.41936744 3.32913217 -6.125 2.5 C-5.40570313 2.0359375 -4.68640625 1.571875 -3.9453125 1.09375 C-2 0 -2 0 0 0 Z " fill="#252524" transform="translate(310,167)"/>
<path d="M0 0 C2.97 0.495 2.97 0.495 6 1 C5.01 1.495 5.01 1.495 4 2 C3.34786708 4.02463255 3.34786708 4.02463255 3 6 C4.65 6.33 6.3 6.66 8 7 C8 7.33 8 7.66 8 8 C2.60550707 8.27429625 -0.51925805 8.36055646 -5 5 C-4.360625 4.731875 -3.72125 4.46375 -3.0625 4.1875 C-0.66868314 3.11332248 -0.66868314 3.11332248 0 0 Z " fill="#3B3B39" transform="translate(158,336)"/>
<path d="M0 0 C0.33 0 0.66 0 1 0 C1 1.98 1 3.96 1 6 C-2.96 6 -6.92 6 -11 6 C-11 5.34 -11 4.68 -11 4 C-9.35 3.67 -7.7 3.34 -6 3 C-6 2.34 -6 1.68 -6 1 C-5.34 1 -4.68 1 -4 1 C-4 1.66 -4 2.32 -4 3 C-3.01 3 -2.02 3 -1 3 C-0.67 2.01 -0.34 1.02 0 0 Z " fill="#171716" transform="translate(375,337)"/>
<path d="M0 0 C1.65 0.99 3.3 1.98 5 3 C4.67 4.32 4.34 5.64 4 7 C1.69 6.67 -0.62 6.34 -3 6 C-2.67 4.68 -2.34 3.36 -2 2 C-1.34 2 -0.68 2 0 2 C0 1.34 0 0.68 0 0 Z " fill="#292929" transform="translate(195,169)"/>
<path d="M0 0 C0 1.65 0 3.3 0 5 C0.99 5.33 1.98 5.66 3 6 C0.04335481 7.4783226 -2.74229737 7.06032783 -6 7 C-6 4 -6 4 -4.125 1.8125 C-2 0 -2 0 0 0 Z " fill="#1C1C1A" transform="translate(167,336)"/>
<path d="M0 0 C0.33 2.31 0.66 4.62 1 7 C-0.98 7.33 -2.96 7.66 -5 8 C-5.33 6.35 -5.66 4.7 -6 3 C-1.125 0 -1.125 0 0 0 Z " fill="#21221E" transform="translate(272,321)"/>
<path d="M0 0 C0.33 0 0.66 0 1 0 C1 4.29 1 8.58 1 13 C0.34 11.68 -0.32 10.36 -1 9 C-3.05000871 8.19471111 -3.05000871 8.19471111 -5 8 C-4.19185349 6.66402348 -3.37836819 5.331275 -2.5625 4 C-2.11003906 3.2575 -1.65757812 2.515 -1.19140625 1.75 C-0.79824219 1.1725 -0.40507812 0.595 0 0 Z " fill="#2D2D2C" transform="translate(279,195)"/>
<path d="M0 0 C0.99 0.33 1.98 0.66 3 1 C2.67 4.3 2.34 7.6 2 11 C1.34 11 0.68 11 0 11 C-0.19491452 9.54263913 -0.38069358 8.08405407 -0.5625 6.625 C-0.66691406 5.81289063 -0.77132813 5.00078125 -0.87890625 4.1640625 C-1 2 -1 2 0 0 Z " fill="#E6E6E4" transform="translate(290,321)"/>
<path d="M0 0 C1.65 0 3.3 0 5 0 C5 2.64 5 5.28 5 8 C3.68 7.67 2.36 7.34 1 7 C0.67 4.69 0.34 2.38 0 0 Z " fill="#151513" transform="translate(263,312)"/>
<path d="M0 0 C0.33 0 0.66 0 1 0 C1 5.94 1 11.88 1 18 C0.67 18 0.34 18 0 18 C-0.33 14.37 -0.66 10.74 -1 7 C-1.99 7.495 -1.99 7.495 -3 8 C-1.125 2.25 -1.125 2.25 0 0 Z " fill="#E1E1E0" transform="translate(204,325)"/>
<path d="M0 0 C1.65 0.33 3.3 0.66 5 1 C4.67 2.98 4.34 4.96 4 7 C3.67 6.34 3.34 5.68 3 5 C0.98330173 3.86649466 0.98330173 3.86649466 -1 3 C-0.67 2.01 -0.34 1.02 0 0 Z " fill="#1B1C18" transform="translate(267,272)"/>
<path d="M0 0 C0.66 0 1.32 0 2 0 C2.33 0.99 2.66 1.98 3 3 C1.25 5 1.25 5 -1 7 C-2.32 7 -3.64 7 -5 7 C-4.34 5.68 -3.68 4.36 -3 3 C-2.01 3 -1.02 3 0 3 C0 2.01 0 1.02 0 0 Z " fill="#121210" transform="translate(310,167)"/>
<path d="M0 0 C0 3.24986616 -0.76815277 5.02907432 -2 8 C-2.165 8.721875 -2.33 9.44375 -2.5 10.1875 C-3 12 -3 12 -5 14 C-5.45772527 8.27843418 -4.54034087 5.50588838 -1 1 C-0.67 0.67 -0.34 0.34 0 0 Z " fill="#2F2F2E" transform="translate(242,183)"/>
<path d="M0 0 C0.99 0.33 1.98 0.66 3 1 C1.02 1.99 1.02 1.99 -1 3 C-1 8.61 -1 14.22 -1 20 C-1.33 20 -1.66 20 -2 20 C-2.05379226 17.04142591 -2.09357093 14.08382279 -2.125 11.125 C-2.14175781 10.28324219 -2.15851563 9.44148437 -2.17578125 8.57421875 C-2.18222656 7.76855469 -2.18867188 6.96289062 -2.1953125 6.1328125 C-2.21102295 5.01737061 -2.21102295 5.01737061 -2.22705078 3.87939453 C-2 2 -2 2 0 0 Z " fill="#3A3A3A" transform="translate(249,124)"/>
<path d="M0 0 C0.33 0 0.66 0 1 0 C1 1.98 1 3.96 1 6 C-2.96 6 -6.92 6 -11 6 C-11 5.67 -11 5.34 -11 5 C-8.36 5 -5.72 5 -3 5 C-3 4.34 -3 3.68 -3 3 C-2.34 3 -1.68 3 -1 3 C-0.67 2.01 -0.34 1.02 0 0 Z " fill="#30302E" transform="translate(326,312)"/>
<path d="M0 0 C2.97 0.495 2.97 0.495 6 1 C6 1.66 6 2.32 6 3 C5.34 3 4.68 3 4 3 C3.67 3.99 3.34 4.98 3 6 C2.01 5.67 1.02 5.34 0 5 C0 3.35 0 1.7 0 0 Z " fill="#141413" transform="translate(189,168)"/>
<path d="M0 0 C0.66 0.33 1.32 0.66 2 1 C1.1875 4.4375 1.1875 4.4375 0 8 C-0.99 8.33 -1.98 8.66 -3 9 C-3 8.34 -3 7.68 -3 7 C-3.66 6.67 -4.32 6.34 -5 6 C-4.34 6 -3.68 6 -3 6 C-2.87625 5.195625 -2.7525 4.39125 -2.625 3.5625 C-2.41875 2.716875 -2.2125 1.87125 -2 1 C-1.34 0.67 -0.68 0.34 0 0 Z " fill="#121210" transform="translate(276,239)"/>
<path d="M0 0 C0 0.66 0 1.32 0 2 C-3.3 2.66 -6.6 3.32 -10 4 C-9.67 3.01 -9.34 2.02 -9 1 C-5.8035914 -0.06546953 -3.34252724 -0.07427838 0 0 Z " fill="#20201E" transform="translate(241,161)"/>
<path d="M0 0 C1.53445094 3.06890187 0.54984289 5.70094266 0 9 C-1.32 8.67 -2.64 8.34 -4 8 C-4 7.01 -4 6.02 -4 5 C-3.34 5 -2.68 5 -2 5 C-2 3.68 -2 2.36 -2 1 C-1.34 0.67 -0.68 0.34 0 0 Z " fill="#10110D" transform="translate(277,329)"/>
<path d="M0 0 C1.65 0 3.3 0 5 0 C5 0.99 5 1.98 5 3 C5.99 3.33 6.98 3.66 8 4 C5.69 4 3.38 4 1 4 C0.67 2.68 0.34 1.36 0 0 Z " fill="#20211D" transform="translate(287,339)"/>
<path d="M0 0 C1.4540625 0.0309375 1.4540625 0.0309375 2.9375 0.0625 C2.6075 1.0525 2.2775 2.0425 1.9375 3.0625 C1.2775 3.0625 0.6175 3.0625 -0.0625 3.0625 C-0.0625 3.7225 -0.0625 4.3825 -0.0625 5.0625 C-0.7225 5.0625 -1.3825 5.0625 -2.0625 5.0625 C-2.7225 3.7425 -3.3825 2.4225 -4.0625 1.0625 C-3.0625 0.0625 -3.0625 0.0625 0 0 Z " fill="#11110F" transform="translate(323.0625,311.9375)"/>
<path d="M0 0 C0.99 0.33 1.98 0.66 3 1 C1.515 3.475 1.515 3.475 0 6 C-0.99 5.67 -1.98 5.34 -3 5 C-2.625 3.0625 -2.625 3.0625 -2 1 C-1.34 0.67 -0.68 0.34 0 0 Z " fill="#11110F" transform="translate(276,203)"/>
<path d="M0 0 C1.32 1.32 2.64 2.64 4 4 C1.92446352 4.5534764 0.15634036 5 -2 5 C-2 5.66 -2 6.32 -2 7 C-2.66 6.67 -3.32 6.34 -4 6 C-2.68 4.02 -1.36 2.04 0 0 Z " fill="#1D1D1B" transform="translate(211,173)"/>
<path d="M0 0 C1.3921875 0.3403125 1.3921875 0.3403125 2.8125 0.6875 C1.8225 2.0075 0.8325 3.3275 -0.1875 4.6875 C-2.1675 4.0275 -4.1475 3.3675 -6.1875 2.6875 C-4.14987265 -0.14253799 -3.59070275 -0.35202968 0 0 Z " fill="#11110F" transform="translate(282.1875,168.3125)"/>
<path d="M0 0 C0.99 0.66 1.98 1.32 3 2 C3.66 2 4.32 2 5 2 C5 2.99 5 3.98 5 5 C2.625 5.1875 2.625 5.1875 0 5 C-0.66 4.01 -1.32 3.02 -2 2 C-1.34 2 -0.68 2 0 2 C0 1.34 0 0.68 0 0 Z " fill="#191A15" transform="translate(251,338)"/>
<path d="M0 0 C0.33 0 0.66 0 1 0 C1 1.98 1 3.96 1 6 C-0.65 6 -2.3 6 -4 6 C-3.67 5.01 -3.34 4.02 -3 3 C-2.34 3 -1.68 3 -1 3 C-0.67 2.01 -0.34 1.02 0 0 Z " fill="#383838" transform="translate(375,337)"/>
<path d="M0 0 C0.33 0.66 0.66 1.32 1 2 C-0.65 3.98 -2.3 5.96 -4 8 C-4.66 7.67 -5.32 7.34 -6 7 C-4.02 4.69 -2.04 2.38 0 0 Z " fill="#292927" transform="translate(239,219)"/>
<path d="M0 0 C0 2.64 0 5.28 0 8 C-1.32 6.35 -2.64 4.7 -4 3 C-1.125 0 -1.125 0 0 0 Z " fill="#F2F2F0" transform="translate(250,321)"/>
<path d="M0 0 C0.66 0.33 1.32 0.66 2 1 C1.34 2.65 0.68 4.3 0 6 C-1.32 6 -2.64 6 -4 6 C-3.34 5.67 -2.68 5.34 -2 5 C-1.27840576 3.35636866 -0.60648579 1.68949614 0 0 Z " fill="#171715" transform="translate(285,145)"/>
</svg>
